<svg width="112" height="21" viewBox="0 0 309 66" fill="none" xmlns="http://www.w3.org/2000/svg">
<path d="M17.536 56C13.696 56 10.9867 55.2107 9.408 53.632C7.82933 52.0533 7.04 49.344 7.04 45.504V43.008C7.04 42.5813 7.25333 42.368 7.68 42.368H9.408C9.792 42.368 9.984 42.5813 9.984 43.008V46.08C9.984 48.5547 10.56 50.368 11.712 51.52C12.864 52.672 14.6987 53.248 17.216 53.248H46.336C48.8533 53.248 50.6667 52.672 51.776 51.52C52.928 50.368 53.504 48.5547 53.504 46.08V42.304C53.504 39.7867 52.928 37.9733 51.776 36.864C50.6667 35.712 48.8533 35.136 46.336 35.136H18.176C14.336 35.136 11.6267 34.3467 10.048 32.768C8.46933 31.1893 7.68 28.48 7.68 24.64V21.696C7.68 17.856 8.46933 15.1467 10.048 13.568C11.6267 11.9893 14.336 11.2 18.176 11.2H45.376C49.216 11.2 51.9253 11.9893 53.504 13.568C55.0827 15.1467 55.872 17.856 55.872 21.696V23.872C55.872 24.256 55.6587 24.448 55.232 24.448H53.504C53.0773 24.448 52.864 24.256 52.864 23.872V21.12C52.864 18.6027 52.288 16.768 51.136 15.616C49.984 14.464 48.1707 13.888 45.696 13.888H17.856C15.3813 13.888 13.5467 14.464 12.352 15.616C11.2 16.768 10.624 18.6027 10.624 21.12V25.216C10.624 27.6907 11.2 29.504 12.352 30.656C13.504 31.808 15.3387 32.384 17.856 32.384H46.016C49.856 32.384 52.5653 33.1733 54.144 34.752C55.7227 36.3307 56.512 39.04 56.512 42.88V45.504C56.512 49.344 55.7227 52.0533 54.144 53.632C52.5653 55.2107 49.856 56 46.016 56H17.536ZM116.25 54.144C116.762 54.528 117.018 54.8693 117.018 55.168C117.018 55.424 116.89 55.6373 116.634 55.808C116.378 55.936 116.036 56 115.61 56H109.018C107.61 56 106.458 55.68 105.562 55.04L77.6575 34.624V55.04C77.6575 55.68 77.3375 56 76.6975 56H71.5775C70.9375 56 70.6175 55.68 70.6175 55.04V12.16C70.6175 11.52 70.9375 11.2 71.5775 11.2H76.6975C77.3375 11.2 77.6575 11.52 77.6575 12.16V31.488L105.498 12.032C106.266 11.4773 107.204 11.2 108.314 11.2H115.29C115.674 11.2 115.972 11.2853 116.186 11.456C116.399 11.584 116.506 11.7547 116.506 11.968C116.506 12.352 116.164 12.8 115.482 13.312L87.3215 32.96L116.25 54.144ZM136.498 56C132.828 56 129.991 54.9973 127.986 52.992C125.98 50.9867 124.978 48.1493 124.978 44.48V22.72C124.978 19.0507 125.98 16.2133 127.986 14.208C129.991 12.2027 132.828 11.2 136.498 11.2H170.098C173.767 11.2 176.604 12.2027 178.61 14.208C180.615 16.2133 181.618 19.0507 181.618 22.72V44.48C181.618 48.1493 180.615 50.9867 178.61 52.992C176.604 54.9973 173.767 56 170.098 56H136.498ZM168.754 49.6C170.759 49.6 172.231 49.1307 173.17 48.192C174.108 47.2533 174.578 45.7813 174.578 43.776V23.424C174.578 21.4187 174.108 19.9467 173.17 19.008C172.231 18.0693 170.759 17.6 168.754 17.6H137.842C135.836 17.6 134.364 18.0693 133.426 19.008C132.487 19.9467 132.018 21.4187 132.018 23.424V43.776C132.018 45.7813 132.487 47.2533 133.426 48.192C134.364 49.1307 135.836 49.6 137.842 49.6H168.754ZM244.048 25.92C244.048 29.4187 243.216 32 241.552 33.664C239.93 35.328 237.349 36.16 233.808 36.16H222.224L243.28 53.824C243.792 54.2507 244.048 54.6773 244.048 55.104C244.048 55.36 243.92 55.5733 243.664 55.744C243.45 55.9147 243.13 56 242.704 56H236.496C235.514 56 234.725 55.7653 234.128 55.296L211.344 36.16H203.408V55.04C203.408 55.68 203.088 56 202.448 56H197.328C196.688 56 196.368 55.68 196.368 55.04V12.16C196.368 11.52 196.688 11.2 197.328 11.2H233.808C237.349 11.2 239.93 12.032 241.552 13.696C243.216 15.3173 244.048 17.8987 244.048 21.44V25.92ZM203.408 29.76H232.208C233.872 29.76 235.088 29.376 235.856 28.608C236.624 27.84 237.008 26.624 237.008 24.96V22.4C237.008 20.736 236.624 19.52 235.856 18.752C235.088 17.984 233.872 17.6 232.208 17.6H203.408V29.76ZM306.027 54.592C306.112 54.9333 306.155 55.1467 306.155 55.232C306.155 55.744 305.856 56 305.259 56H300.587C299.819 56 299.35 55.68 299.179 55.04L296.555 45.44H260.715L258.091 55.04C257.92 55.68 257.451 56 256.683 56H252.011C251.414 56 251.115 55.744 251.115 55.232C251.115 55.1467 251.158 54.9333 251.243 54.592L263.467 12.16C263.68 11.52 264.15 11.2 264.875 11.2H292.395C293.163 11.2 293.632 11.52 293.803 12.16L306.027 54.592ZM268.651 17.92L264.171 33.408L262.571 39.04H294.699L293.099 33.408L288.619 17.92H268.651Z" />
<path d="M141.624 0C140.984 0 140.664 0.32 140.664 0.96V5.28C140.664 5.92 140.984 6.24 141.624 6.24H145.944C146.584 6.24 146.904 5.92 146.904 5.28V0.96C146.904 0.32 146.584 0 145.944 0H141.624ZM159.155 0C158.515 0 158.195 0.32 158.195 0.96V5.28C158.195 5.92 158.515 6.24 159.155 6.24H163.475C164.115 6.24 164.435 5.92 164.435 5.28V0.96C164.435 0.32 164.115 0 163.475 0H159.155Z" />
</svg>
