<svg width="44" height="44" viewBox="0 0 44 44" fill="none" xmlns="http://www.w3.org/2000/svg">
<path d="M44 22C44 34.1503 34.1503 44 22 44C9.84974 44 0 34.1503 0 22C0 9.84974 9.84974 0 22 0C34.1503 0 44 9.84974 44 22Z" fill="#FFBF92"/>
<path d="M16.8229 30.2857C15.5276 30.2857 14.5905 29.9962 14.0114 29.4171C13.4324 28.8381 13.1429 27.901 13.1429 26.6057V25.6229C13.1429 25.4095 13.2419 25.3029 13.44 25.3029H14.88C15.0781 25.3029 15.1771 25.4095 15.1771 25.6229V26.5143C15.1771 27.2152 15.3371 27.7257 15.6571 28.0457C15.9771 28.3505 16.48 28.5029 17.1657 28.5029H27.3371C28.0381 28.5029 28.5486 28.3505 28.8686 28.0457C29.1886 27.7257 29.3486 27.2152 29.3486 26.5143V25.2343C29.3486 24.5333 29.1886 24.0229 28.8686 23.7029C28.5486 23.3829 28.0381 23.2229 27.3371 23.2229H17.0514C15.7562 23.2229 14.819 22.9333 14.24 22.3543C13.661 21.7752 13.3714 20.8381 13.3714 19.5429V17.9657C13.3714 16.6705 13.661 15.7333 14.24 15.1543C14.819 14.5752 15.7562 14.2857 17.0514 14.2857H27.4514C28.7467 14.2857 29.6838 14.5752 30.2629 15.1543C30.8571 15.7333 31.1543 16.6705 31.1543 17.9657V18.8343C31.1543 19.0324 31.0476 19.1314 30.8343 19.1314H29.4171C29.2191 19.1314 29.12 19.0324 29.12 18.8343V18.0571C29.12 17.3562 28.96 16.8457 28.64 16.5257C28.32 16.2057 27.8095 16.0457 27.1086 16.0457H17.3943C16.7086 16.0457 16.2057 16.2057 15.8857 16.5257C15.5657 16.8457 15.4057 17.3562 15.4057 18.0571V19.4514C15.4057 20.1524 15.5657 20.6629 15.8857 20.9829C16.2057 21.3029 16.7086 21.4629 17.3943 21.4629H27.68C28.9752 21.4629 29.9124 21.7524 30.4914 22.3314C31.0857 22.9105 31.3829 23.8476 31.3829 25.1429V26.6057C31.3829 27.901 31.0857 28.8381 30.4914 29.4171C29.9124 29.9962 28.9752 30.2857 27.68 30.2857H16.8229Z" fill="white"/>
</svg>
