<svg width="19" height="21" viewBox="0 0 19 21" fill="none" xmlns="http://www.w3.org/2000/svg">
<path d="M9.5 7.99927C10.8807 7.99927 12 9.11856 12 10.4993C12 11.88 10.8807 12.9993 9.5 12.9993C8.11929 12.9993 7 11.88 7 10.4993C7 9.11856 8.11929 7.99927 9.5 7.99927Z" stroke-width="1.5" stroke-miterlimit="1" stroke-linecap="round" stroke-linejoin="round"/>
<path d="M18 14.2992V6.69919C17.9995 6.36653 17.9122 6.03976 17.7466 5.75124C17.581 5.46271 17.343 5.22243 17.056 5.05419L10.444 1.25419C10.1573 1.08769 9.83159 1 9.50001 1C9.16843 1 8.84275 1.08769 8.55601 1.25419L1.94401 5.05419C1.65601 5.22128 1.41713 5.46131 1.2514 5.75009C1.08568 6.03888 0.998972 6.36623 1.00001 6.69919V14.3012C1.00066 14.6337 1.08808 14.9602 1.25365 15.2486C1.41921 15.5369 1.65718 15.777 1.94401 15.9452L8.55601 19.7452C8.84275 19.9117 9.16843 19.9994 9.50001 19.9994C9.83159 19.9994 10.1573 19.9117 10.444 19.7452L17.056 15.9452C17.3442 15.778 17.5831 15.5378 17.7489 15.2489C17.9146 14.9599 18.0012 14.6323 18 14.2992Z" stroke-width="1.5" stroke-linecap="round" stroke-linejoin="round"/>
</svg>