<svg width="22" height="15" viewBox="0 0 22 15" fill="none" xmlns="http://www.w3.org/2000/svg">
<path d="M1 11.7391V3.26087C1 2.66125 1.23413 2.08619 1.65087 1.66219C2.06762 1.2382 2.63285 1 3.22222 1H12.6667C13.256 1 13.8213 1.2382 14.238 1.66219C14.6548 2.08619 14.8889 2.66125 14.8889 3.26087V11.7391C14.8889 12.3388 14.6548 12.9138 14.238 13.3378C13.8213 13.7618 13.256 14 12.6667 14H3.22222C2.63285 14 2.06762 13.7618 1.65087 13.3378C1.23413 12.9138 1 12.3388 1 11.7391ZM20.0756 1.83765L15.6311 5.86539C15.5725 5.91831 15.5256 5.98324 15.4935 6.05591C15.4613 6.12857 15.4446 6.20734 15.4444 6.28704V8.29696C15.4446 8.37666 15.4613 8.45542 15.4935 8.52809C15.5256 8.60076 15.5725 8.66569 15.6311 8.71861L20.0756 12.7463C20.1556 12.8187 20.2546 12.8659 20.3604 12.8824C20.4663 12.8989 20.5745 12.8839 20.6722 12.8392C20.7699 12.7946 20.8528 12.7221 20.911 12.6306C20.9691 12.5392 21 12.4325 21 12.3236V2.26043C21 2.15148 20.9691 2.04484 20.911 1.95336C20.8528 1.86187 20.7699 1.78943 20.6722 1.74476C20.5745 1.70009 20.4663 1.68509 20.3604 1.70157C20.2546 1.71805 20.1556 1.76531 20.0756 1.83765Z"  stroke-width="1.75" stroke-linecap="round" stroke-linejoin="round"/>
</svg>
