<svg width="112" height="21" viewBox="0 0 112 21" fill="none" xmlns="http://www.w3.org/2000/svg">
<path d="M3.91851 20.4118C2.48491 20.4118 1.47342 20.064 0.884053 19.3682C0.294685 18.6724 0 17.4783 0 15.7858V14.6857C0 14.4977 0.0796446 14.4037 0.238933 14.4037H0.884053C1.02741 14.4037 1.09909 14.4977 1.09909 14.6857V16.0397C1.09909 17.1304 1.31413 17.9296 1.74421 18.4373C2.17429 18.9451 2.85924 19.1989 3.79904 19.1989H14.6705C15.6103 19.1989 16.2873 18.9451 16.7014 18.4373C17.1315 17.9296 17.3466 17.1304 17.3466 16.0397V14.3755C17.3466 13.266 17.1315 12.4667 16.7014 11.9778C16.2873 11.4701 15.6103 11.2162 14.6705 11.2162H4.15744C2.72384 11.2162 1.71236 10.8684 1.12299 10.1726C0.533616 9.47676 0.238933 8.28266 0.238933 6.59021V5.29267C0.238933 3.60023 0.533616 2.40611 1.12299 1.71033C1.71236 1.01455 2.72384 0.666656 4.15744 0.666656H14.3121C15.7457 0.666656 16.7572 1.01455 17.3466 1.71033C17.9359 2.40611 18.2306 3.60023 18.2306 5.29267V6.25172C18.2306 6.42097 18.151 6.50559 17.9917 6.50559H17.3466C17.1873 6.50559 17.1076 6.42097 17.1076 6.25172V5.03881C17.1076 3.92931 16.8926 3.1207 16.4625 2.61297C16.0324 2.10524 15.3555 1.85137 14.4316 1.85137H4.03797C3.1141 1.85137 2.42916 2.10524 1.98315 2.61297C1.55307 3.1207 1.33803 3.92931 1.33803 5.03881V6.84408C1.33803 7.93478 1.55307 8.73398 1.98315 9.24171C2.41323 9.74944 3.09817 10.0033 4.03797 10.0033H14.551C15.9846 10.0033 16.9961 10.3512 17.5855 11.047C18.1749 11.7428 18.4695 12.9369 18.4695 14.6293V15.7858C18.4695 17.4783 18.1749 18.6724 17.5855 19.3682C16.9961 20.064 15.9846 20.4118 14.551 20.4118H3.91851ZM40.7717 19.5938C40.9629 19.7631 41.0585 19.9135 41.0585 20.0451C41.0585 20.158 41.0107 20.252 40.9151 20.3272C40.8195 20.3836 40.6918 20.4118 40.5328 20.4118H38.0718C37.5461 20.4118 37.1159 20.2708 36.7814 19.9887L26.3639 10.9906V19.9887C26.3639 20.2708 26.2444 20.4118 26.0055 20.4118H24.094C23.8551 20.4118 23.7356 20.2708 23.7356 19.9887V1.08977C23.7356 0.807694 23.8551 0.666656 24.094 0.666656H26.0055C26.2444 0.666656 26.3639 0.807694 26.3639 1.08977V9.60841L36.7575 1.03335C37.0442 0.788889 37.3946 0.666656 37.809 0.666656H40.4133C40.5567 0.666656 40.6679 0.704266 40.7478 0.779486C40.8274 0.835901 40.8673 0.911121 40.8673 1.00515C40.8673 1.17439 40.7396 1.37184 40.485 1.5975L29.9718 10.2572L40.7717 19.5938ZM48.331 20.4118C46.9609 20.4118 45.9017 19.9699 45.1532 19.0861C44.4043 18.2023 44.0302 16.9517 44.0302 15.3345V5.74399C44.0302 4.12677 44.4043 2.87624 45.1532 1.99241C45.9017 1.10857 46.9609 0.666656 48.331 0.666656H60.875C62.2448 0.666656 63.3039 1.10857 64.0528 1.99241C64.8013 2.87624 65.1758 4.12677 65.1758 5.74399V15.3345C65.1758 16.9517 64.8013 18.2023 64.0528 19.0861C63.3039 19.9699 62.2448 20.4118 60.875 20.4118H48.331ZM60.3732 17.5911C61.1218 17.5911 61.6713 17.3843 62.0219 16.9705C62.3721 16.5568 62.5475 15.908 62.5475 15.0242V6.05427C62.5475 5.17046 62.3721 4.52167 62.0219 4.10796C61.6713 3.69425 61.1218 3.4874 60.3732 3.4874H48.8327C48.0838 3.4874 47.5343 3.69425 47.1841 4.10796C46.8335 4.52167 46.6585 5.17046 46.6585 6.05427V15.0242C46.6585 15.908 46.8335 16.5568 47.1841 16.9705C47.5343 17.3843 48.0838 17.5911 48.8327 17.5911H60.3732ZM88.483 7.15436C88.483 8.69638 88.1724 9.83407 87.5512 10.5675C86.9456 11.3009 85.982 11.6675 84.6601 11.6675H80.3354L88.1963 19.4528C88.3874 19.6409 88.483 19.8289 88.483 20.0169C88.483 20.1298 88.4352 20.2238 88.3396 20.299C88.2597 20.3742 88.1403 20.4118 87.9812 20.4118H85.6636C85.297 20.4118 85.0024 20.3084 84.7795 20.1016L76.2735 11.6675H73.3107V19.9887C73.3107 20.2708 73.1913 20.4118 72.9523 20.4118H71.0409C70.8019 20.4118 70.6825 20.2708 70.6825 19.9887V1.08977C70.6825 0.807694 70.8019 0.666656 71.0409 0.666656H84.6601C85.982 0.666656 86.9456 1.03335 87.5512 1.76675C88.1724 2.48133 88.483 3.61903 88.483 5.17984V7.15436ZM73.3107 8.84681H84.0627C84.6839 8.84681 85.1379 8.67756 85.4246 8.33907C85.7114 8.00058 85.8547 7.46464 85.8547 6.73125V5.60295C85.8547 4.86956 85.7114 4.33362 85.4246 3.99513C85.1379 3.65664 84.6839 3.4874 84.0627 3.4874H73.3107V8.84681ZM111.622 19.7913C111.654 19.9417 111.67 20.0358 111.67 20.0734C111.67 20.299 111.558 20.4118 111.335 20.4118H109.591C109.304 20.4118 109.129 20.2708 109.065 19.9887L108.086 15.7576H94.7053L93.7257 19.9887C93.6619 20.2708 93.4868 20.4118 93.2001 20.4118H91.4558C91.233 20.4118 91.1213 20.299 91.1213 20.0734C91.1213 20.0358 91.1374 19.9417 91.1691 19.7913L95.7327 1.08977C95.8123 0.807694 95.9877 0.666656 96.2584 0.666656H106.533C106.819 0.666656 106.994 0.807694 107.058 1.08977L111.622 19.7913ZM97.6681 3.62844L95.9956 10.4546L95.3982 12.9369H107.393L106.795 10.4546L105.123 3.62844H97.6681Z" fill="white"/>
</svg>
