<svg width="300" height="45" viewBox="0 0 300 45" fill="none" xmlns="http://www.w3.org/2000/svg">
<path d="M10.536 45C6.696 45 3.98667 44.2107 2.408 42.632C0.829334 41.0533 0.0400004 38.344 0.0400004 34.504V32.008C0.0400004 31.5813 0.253334 31.368 0.68 31.368H2.408C2.792 31.368 2.984 31.5813 2.984 32.008V35.08C2.984 37.5547 3.56 39.368 4.712 40.52C5.864 41.672 7.69867 42.248 10.216 42.248H39.336C41.8533 42.248 43.6667 41.672 44.776 40.52C45.928 39.368 46.504 37.5547 46.504 35.08V31.304C46.504 28.7867 45.928 26.9733 44.776 25.864C43.6667 24.712 41.8533 24.136 39.336 24.136H11.176C7.336 24.136 4.62667 23.3467 3.048 21.768C1.46933 20.1893 0.68 17.48 0.68 13.64V10.696C0.68 6.856 1.46933 4.14666 3.048 2.568C4.62667 0.98933 7.336 0.199997 11.176 0.199997H38.376C42.216 0.199997 44.9253 0.98933 46.504 2.568C48.0827 4.14666 48.872 6.856 48.872 10.696V12.872C48.872 13.256 48.6587 13.448 48.232 13.448H46.504C46.0773 13.448 45.864 13.256 45.864 12.872V10.12C45.864 7.60266 45.288 5.768 44.136 4.616C42.984 3.464 41.1707 2.888 38.696 2.888H10.856C8.38133 2.888 6.54667 3.464 5.352 4.616C4.2 5.768 3.624 7.60266 3.624 10.12V14.216C3.624 16.6907 4.2 18.504 5.352 19.656C6.504 20.808 8.33867 21.384 10.856 21.384H39.016C42.856 21.384 45.5653 22.1733 47.144 23.752C48.7227 25.3307 49.512 28.04 49.512 31.88V34.504C49.512 38.344 48.7227 41.0533 47.144 42.632C45.5653 44.2107 42.856 45 39.016 45H10.536ZM109.25 43.144C109.762 43.528 110.018 43.8693 110.018 44.168C110.018 44.424 109.89 44.6373 109.634 44.808C109.378 44.936 109.036 45 108.61 45H102.018C100.61 45 99.4575 44.68 98.5615 44.04L70.6575 23.624V44.04C70.6575 44.68 70.3375 45 69.6975 45H64.5775C63.9375 45 63.6175 44.68 63.6175 44.04V1.16C63.6175 0.519997 63.9375 0.199997 64.5775 0.199997H69.6975C70.3375 0.199997 70.6575 0.519997 70.6575 1.16V20.488L98.4975 1.032C99.2655 0.477331 100.204 0.199997 101.314 0.199997H108.29C108.674 0.199997 108.972 0.28533 109.186 0.455997C109.399 0.583998 109.506 0.754665 109.506 0.967999C109.506 1.352 109.164 1.8 108.482 2.312L80.3215 21.96L109.25 43.144ZM129.498 45C125.828 45 122.991 43.9973 120.986 41.992C118.98 39.9867 117.978 37.1493 117.978 33.48V11.72C117.978 8.05067 118.98 5.21333 120.986 3.208C122.991 1.20266 125.828 0.199997 129.498 0.199997H163.098C166.767 0.199997 169.604 1.20266 171.61 3.208C173.615 5.21333 174.618 8.05067 174.618 11.72V33.48C174.618 37.1493 173.615 39.9867 171.61 41.992C169.604 43.9973 166.767 45 163.098 45H129.498ZM161.754 38.6C163.759 38.6 165.231 38.1307 166.17 37.192C167.108 36.2533 167.578 34.7813 167.578 32.776V12.424C167.578 10.4187 167.108 8.94666 166.17 8.008C165.231 7.06933 163.759 6.6 161.754 6.6H130.842C128.836 6.6 127.364 7.06933 126.426 8.008C125.487 8.94666 125.018 10.4187 125.018 12.424V32.776C125.018 34.7813 125.487 36.2533 126.426 37.192C127.364 38.1307 128.836 38.6 130.842 38.6H161.754ZM237.048 14.92C237.048 18.4187 236.216 21 234.552 22.664C232.93 24.328 230.349 25.16 226.808 25.16H215.224L236.28 42.824C236.792 43.2507 237.048 43.6773 237.048 44.104C237.048 44.36 236.92 44.5733 236.664 44.744C236.45 44.9147 236.13 45 235.704 45H229.496C228.514 45 227.725 44.7653 227.128 44.296L204.344 25.16H196.408V44.04C196.408 44.68 196.088 45 195.448 45H190.328C189.688 45 189.368 44.68 189.368 44.04V1.16C189.368 0.519997 189.688 0.199997 190.328 0.199997H226.808C230.349 0.199997 232.93 1.032 234.552 2.696C236.216 4.31733 237.048 6.89867 237.048 10.44V14.92ZM196.408 18.76H225.208C226.872 18.76 228.088 18.376 228.856 17.608C229.624 16.84 230.008 15.624 230.008 13.96V11.4C230.008 9.736 229.624 8.52 228.856 7.752C228.088 6.984 226.872 6.6 225.208 6.6H196.408V18.76ZM299.027 43.592C299.112 43.9333 299.155 44.1467 299.155 44.232C299.155 44.744 298.856 45 298.259 45H293.587C292.819 45 292.35 44.68 292.179 44.04L289.555 34.44H253.715L251.091 44.04C250.92 44.68 250.451 45 249.683 45H245.011C244.414 45 244.115 44.744 244.115 44.232C244.115 44.1467 244.158 43.9333 244.243 43.592L256.467 1.16C256.68 0.519997 257.15 0.199997 257.875 0.199997H285.395C286.163 0.199997 286.632 0.519997 286.803 1.16L299.027 43.592ZM261.651 6.92L257.171 22.408L255.571 28.04H287.699L286.099 22.408L281.619 6.92H261.651Z" fill="black"/>
</svg>
